<svg width="512" height="384" viewBox="0 0 512 384" fill="none" xmlns="http://www.w3.org/2000/svg">
  <path d="M256 384C397.385 384 512 296.6 512 186.6C512 83.4 397.385 0 256 0C114.615 0 0 83.4 0 186.6C0 296.6 114.615 384 256 384Z" fill="#F2F4F8"/>
  <path d="M335.9 91.6H173.8C169.8 91.6 166.6 94.9 166.6 98.8V285.2C166.6 289.1 169.9 292.4 173.8 292.4H335.9C339.8 292.4 343.1 289.1 343.1 285.2V98.8C343.1 94.9 339.8 91.6 335.9 91.6Z" fill="white"/>
  <path d="M335.9 91.6H173.8C169.8 91.6 166.6 94.9 166.6 98.8V285.2C166.6 289.1 169.9 292.4 173.8 292.4H335.9C339.8 292.4 343.1 289.1 343.1 285.2V98.8C343.1 94.9 339.8 91.6 335.9 91.6Z" stroke="#4A5CF9" stroke-width="2"/>
  <path d="M343.1 183.3V98.8C343.1 94.9 339.8 91.6 335.9 91.6H173.8C169.8 91.6 166.6 94.9 166.6 98.8V132.9L215.9 182.2L258.6 139.6L343.1 183.3Z" fill="#EAEEFA"/>
  <path d="M181.9 271.6H220.3V274.9H181.9V271.6Z" fill="#4A5CF9"/>
  <path d="M181.9 252.2H307.1V255.5H181.9V252.2Z" fill="#4A5CF9"/>
  <path d="M230.6 271.6H273.3V274.9H230.6V271.6Z" fill="#9EA6FF"/>
  <path d="M212.7 111.1H200.2C198.1 111.1 196.4 109.4 196.4 107.3V107.3C196.4 105.2 198.1 103.5 200.2 103.5H212.7C214.8 103.5 216.5 105.2 216.5 107.3V107.3C216.5 109.4 214.8 111.1 212.7 111.1Z" fill="#9EA6FF"/>
  <path d="M244.5 111.1H232C229.9 111.1 228.2 109.4 228.2 107.3V107.3C228.2 105.2 229.9 103.5 232 103.5H244.5C246.6 103.5 248.3 105.2 248.3 107.3V107.3C248.3 109.4 246.6 111.1 244.5 111.1Z" fill="#9EA6FF"/>
  <path d="M276.3 111.1H263.8C261.7 111.1 260 109.4 260 107.3V107.3C260 105.2 261.7 103.5 263.8 103.5H276.3C278.4 103.5 280.1 105.2 280.1 107.3V107.3C280.1 109.4 278.4 111.1 276.3 111.1Z" fill="#9EA6FF"/>
  <path d="M308.1 111.1H295.6C293.5 111.1 291.8 109.4 291.8 107.3V107.3C291.8 105.2 293.5 103.5 295.6 103.5H308.1C310.2 103.5 311.9 105.2 311.9 107.3V107.3C311.9 109.4 310.2 111.1 308.1 111.1Z" fill="#9EA6FF"/>
  <path d="M270 210H240C234.5 210 230 214.5 230 220V250C230 255.5 234.5 260 240 260H270C275.5 260 280 255.5 280 250V220C280 214.5 275.5 210 270 210Z" fill="#4A5CF9"/>
  <path d="M225 165H184.8L217.2 154L218.3 151.6L228.4 151.1L225 165Z" fill="#9EA6FF"/>
  <path d="M221.6 170L221.6 170C220 171.6 217.5 171.6 215.9 170L195.9 149.9L225.9 149.9L221.6 170Z" fill="#4A5CF9"/>
  <path d="M254.3 170H254.3C252.7 171.6 250.2 171.6 248.6 170L228.5 149.9H258.6L254.3 170Z" fill="#4A5CF9"/>
  <path d="M288.1 170.1H288.1C286.5 171.7 284 171.7 282.4 170.1L262.3 150H292.4L288.1 170.1Z" fill="#4A5CF9"/>
  <path d="M320.6 170.1H320.6C319 171.7 316.5 171.7 314.9 170.1L294.8 150H324.9L320.6 170.1Z" fill="#4A5CF9"/>
  <path d="M258 155H230.8L263.2 144L264.3 141.6L274.4 141.1L258 155Z" fill="#9EA6FF"/>
  <path d="M299.1 160H271.9L304.3 149L305.4 146.6L315.5 146.1L299.1 160Z" fill="#9EA6FF"/>
  <path d="M331.6 144.4H304.4L336.8 133.4L337.9 131L348 130.5L331.6 144.4Z" fill="#9EA6FF"/>
  <text x="250" y="240" font-size="16" font-weight="bold" text-anchor="middle" fill="white">404</text>
</svg>